HIERARCHY
ROOT Root
{
	OFFSET 0.000000 0.000000 0.000000
	CHANNELS 6 Xposition Yposition Zposition Xrotation Yrotation Zrotation
	JOINT Pelvis_R
	{
		OFFSET 0.000000 0.000000 0.100000
		CHANNELS 3 Xrotation Yrotation Zrotation
		JOINT Thigh_R
		{
			OFFSET 0.000000 -0.000000 0.090000
			CHANNELS 3 Xrotation Yrotation Zrotation
			JOINT Shin_R
			{
				OFFSET 0.000000 -0.000000 0.500000
				CHANNELS 3 Xrotation Yrotation Zrotation
				JOINT Foot_R
				{
					OFFSET 0.000000 -0.000000 0.415000
					CHANNELS 3 Xrotation Yrotation Zrotation
					End Site
					{
						OFFSET 0.000000 -0.000000 0.185000
					}
				}
			}
		}
	}
	JOINT Pelvis_L
	{
		OFFSET 0.000000 0.000000 0.100000
		CHANNELS 3 Xrotation Yrotation Zrotation
		JOINT Thigh_L
		{
			OFFSET 0.000000 -0.000000 0.090000
			CHANNELS 3 Xrotation Yrotation Zrotation
			JOINT Shin_L
			{
				OFFSET 0.000000 -0.000000 0.500000
				CHANNELS 3 Xrotation Yrotation Zrotation
				JOINT Foot_L
				{
					OFFSET 0.000000 -0.000000 0.415000
					CHANNELS 3 Xrotation Yrotation Zrotation
					End Site
					{
						OFFSET 0.000000 -0.000000 0.185000
					}
				}
			}
		}
	}
	JOINT Spine
	{
		OFFSET 0.000000 0.000000 0.100000
		CHANNELS 3 Xrotation Yrotation Zrotation
		JOINT Neck
		{
			OFFSET 0.000000 -0.000000 0.525000
			CHANNELS 3 Xrotation Yrotation Zrotation
			JOINT Head
			{
				OFFSET 0.000000 -0.000000 0.165000
				CHANNELS 3 Xrotation Yrotation Zrotation
				End Site
				{
					OFFSET 0.000000 -0.000000 0.095000
				}
			}
		}
		JOINT Shoulder_R
		{
			OFFSET 0.000000 -0.000000 0.525000
			CHANNELS 3 Xrotation Yrotation Zrotation
			JOINT Upperarm_R
			{
				OFFSET 0.000000 -0.000000 0.165000
				CHANNELS 3 Xrotation Yrotation Zrotation
				JOINT Forearm_R
				{
					OFFSET 0.000000 -0.000000 0.260000
					CHANNELS 3 Xrotation Yrotation Zrotation
					JOINT Hand_R
					{
						OFFSET 0.000000 -0.000000 0.240000
						CHANNELS 3 Xrotation Yrotation Zrotation
						End Site
						{
							OFFSET 0.000000 -0.000000 0.075000
						}
					}
				}
			}
		}
		JOINT Shoulder_L
		{
			OFFSET 0.000000 -0.000000 0.525000
			CHANNELS 3 Xrotation Yrotation Zrotation
			JOINT Upperarm_L
			{
				OFFSET 0.000000 -0.000000 0.165000
				CHANNELS 3 Xrotation Yrotation Zrotation
				JOINT Forearm_L
				{
					OFFSET 0.000000 -0.000000 0.260000
					CHANNELS 3 Xrotation Yrotation Zrotation
					JOINT Hand_L
					{
						OFFSET 0.000000 -0.000000 0.240000
						CHANNELS 3 Xrotation Yrotation Zrotation
						End Site
						{
							OFFSET 0.000000 -0.000000 0.075000
						}
					}
				}
			}
		}
	}
}
MOTION
Frames: 12
Frame Time: 0.041667
-0.033701 0.835229 -0.000068 -0.000000 0.000000 -0.000000 -69.840993 -92.329671 -72.043415 -91.722194 -7.597418 90.343308 13.459625 4.506294 3.820701 -28.878825 12.419721 15.728196 -69.841300 87.670334 67.669525 -86.082978 1.456986 -87.260864 14.396357 -1.464893 -0.787180 -27.578197 -3.214086 -4.699545 95.444162 -0.736763 0.810317 15.175186 1.352127 -2.206690 3.541386 -0.537261 0.914361 -20.526291 -92.840180 78.524308 -81.884556 3.320101 86.418060 -20.595414 25.362734 37.210635 -0.189834 30.375671 42.883278 -20.526701 87.159853 -71.417216 -84.979527 4.057076 -80.268554 -19.543767 -23.321732 -34.495686 -8.854802 -42.505370 -64.962038 
-0.034365 0.843880 -0.000070 -0.000000 0.000000 -0.000000 -71.348894 -91.562292 -72.835635 -90.896519 -5.955780 89.930983 13.626524 3.400568 2.770537 -29.904091 10.475342 13.563691 -71.350007 88.437713 69.876182 -87.711691 1.151764 -88.608351 13.850998 -0.406439 -0.145706 -28.087753 -4.295228 -6.103356 95.375150 -0.736473 0.809018 15.650163 1.471010 -2.403434 4.203752 -0.519494 0.936710 -34.810619 -91.620499 62.812803 -83.050353 2.676136 86.521128 -20.918064 26.014760 37.882066 -0.427535 30.659913 42.886580 -34.811002 88.379520 -58.371671 -83.653486 2.632630 -80.152441 -20.381115 -25.127055 -37.278114 -6.643449 -39.677252 -58.833549 
-0.031329 0.837336 -0.000072 -0.000000 0.000000 -0.000000 1.535667 -91.682381 1.581423 -90.427900 -5.085467 92.312609 13.071826 3.082080 2.820914 -27.527981 11.517177 14.282170 1.535498 88.317624 -1.491060 -88.363380 3.684099 -86.529078 13.295155 -1.344904 -0.738969 -26.525868 -2.889140 -4.303032 95.769969 -1.047769 1.158971 15.424495 2.118776 -3.462278 4.491264 0.142229 -0.041659 -32.520054 -92.640581 66.836044 -82.236994 4.717370 87.478379 -18.376692 26.410113 36.130925 -2.969366 32.392411 43.961136 -32.520177 87.359424 -59.798982 -84.621433 3.756403 -79.212969 -20.506624 -25.865189 -38.189811 -3.562841 -37.882893 -53.719083 
-0.033391 0.845103 -0.000076 -0.000000 0.000000 -0.000000 -26.861927 -91.429295 -27.515045 -90.622868 -6.826399 91.389379 12.186486 3.287099 2.983150 -28.024949 10.292362 13.306565 -26.862448 88.570717 26.223712 -88.161575 2.370694 -87.442998 13.380182 -0.419883 -0.072576 -26.718979 -4.382982 -6.396231 95.230548 -0.963823 1.056081 16.311764 2.150910 -3.519398 3.534133 -0.105858 0.321322 -16.819254 -93.254280 82.728057 -80.609141 6.133287 85.755211 -19.205534 28.260157 38.627455 -1.117201 32.283972 42.608103 -16.819257 86.745732 -74.237934 -84.847342 3.837515 -79.398231 -19.721459 -26.649540 -38.205653 -2.594920 -38.917428 -53.240607 
-0.032090 0.838445 -0.000067 -0.000000 0.000000 -0.000000 -57.931219 -92.295793 -59.897699 -91.775415 -8.190541 91.119566 14.394098 3.939610 3.402481 -31.076630 12.499232 16.418523 -57.931329 87.704198 56.006247 -86.325088 1.174407 -86.858061 14.840857 -1.257610 -0.586843 -29.857154 -4.691779 -6.994072 96.432176 -1.039919 1.163735 16.329867 1.866090 -3.204547 3.026140 -1.005241 1.706475 -28.198863 -92.759549 72.030553 -80.838485 3.139985 86.047686 -22.157026 26.534211 40.374109 0.191970 28.106155 40.024048 -28.198822 87.240442 -64.574842 -83.490463 4.035202 -78.144549 -20.884736 -25.844352 -38.645337 -6.928303 -37.893893 -55.191716 
-0.033144 0.840123 -0.000078 -0.000000 0.000000 -0.000000 -3.736355 -89.760604 -3.720792 -90.141162 -5.986010 89.891484 12.762435 4.191086 3.753327 -28.055489 11.887096 14.963064 -3.735004 90.239401 3.750635 -88.450007 4.348427 -88.692472 14.496264 -1.084580 -0.533739 -26.781296 -6.148537 -8.649965 96.175156 -1.030580 1.148092 14.676845 1.604672 -2.673927 3.197508 -0.690166 1.143576 -4.645486 -92.115128 94.829301 -80.874897 2.742526 84.601216 -21.560728 27.465673 41.031340 0.780060 23.763232 32.424633 -4.645126 87.884891 -88.304531 -82.465382 4.397175 -78.667346 -23.313743 -27.178702 -43.024478 -2.005476 -29.685781 -41.641389 
-0.030623 0.837253 -0.000052 -0.000000 0.000000 -0.000000 16.838827 -87.716349 16.189599 -89.997421 -4.011731 87.018270 16.347650 4.400728 3.289920 -31.221481 11.631092 14.115985 16.838938 92.283649 -17.513414 -89.117720 4.178438 -92.147557 17.135348 0.581780 0.478920 -29.724293 -6.508216 -9.201921 96.400627 -1.248118 1.395945 15.162515 1.438289 -2.552327 3.565765 -1.201175 1.949494 11.253525 -91.949912 110.939122 -80.785524 2.083950 84.184335 -23.006618 26.722424 41.649490 -0.979518 21.040475 29.402079 11.253710 88.050065 -104.431052 -81.462717 4.045887 -78.054159 -27.839660 -29.932051 -50.585347 -2.809484 -19.299879 -25.965210 
-0.028388 0.835707 -0.000048 -0.000000 0.000000 -0.000000 23.653056 -88.577103 23.088582 -90.457933 -2.688301 88.529722 17.442608 3.393590 2.544956 -35.290723 13.160226 16.718420 23.653044 91.422908 -24.230501 -88.734840 2.742282 -90.673514 17.942489 0.475091 0.544695 -33.381815 -5.138175 -7.945732 98.963055 -1.458378 1.706392 16.361605 2.048170 -3.827254 1.836218 -1.519754 2.546371 -4.791774 -92.162222 98.086530 -79.471362 3.036301 83.941413 -23.829015 26.919673 42.540949 -1.908443 21.230566 29.708871 -4.791326 87.837811 -90.360425 -81.987385 5.968075 -77.366188 -37.045061 -31.823620 -64.542501 -1.098821 -4.523159 -5.417703 
-0.032357 0.860947 -0.000060 -0.000000 0.000000 -0.000000 -1.609616 -89.061480 -1.583472 -90.942275 -3.264672 89.975462 15.512804 1.319903 1.295639 -31.114524 13.711172 17.769541 -1.609290 90.938532 1.635870 -88.522325 2.454196 -89.475348 14.460791 -0.938232 -0.416959 -30.249436 -5.009262 -7.403100 95.532299 -1.391133 1.532369 15.123762 2.074028 -3.473331 3.434405 -1.432275 2.313749 10.234186 -92.346767 109.599599 -79.566137 5.483315 83.432796 -21.050436 27.250816 38.966922 -3.497036 21.688695 27.797721 10.234262 87.653225 -102.017795 -80.033793 7.650037 -76.173336 -49.832879 -33.645495 -87.787697 3.255999 11.372512 9.935939 
-0.030683 0.860074 -0.000054 -0.000000 0.000000 -0.000000 77.731740 -86.789199 74.612782 -92.907949 -4.035298 88.912281 14.617389 3.371838 2.592425 -30.462849 13.315005 16.256117 77.731473 93.210813 -80.887779 -84.944904 -2.038829 -88.501111 13.198786 -1.289491 -0.640941 -29.910573 -3.768696 -5.729560 94.825907 -1.518165 1.651724 15.609678 2.621698 -4.302322 3.871479 -3.818531 6.062047 -0.971282 -92.950467 98.523580 -78.404151 6.169538 83.397334 -21.264334 25.921734 37.667298 -3.116486 25.477031 34.114749 -0.970893 87.049566 -89.331737 -80.729476 9.910079 -75.548763 -62.167316 -32.378321 -111.648007 -0.730035 19.770609 21.808582 
-0.034851 0.859924 -0.000051 -0.000000 0.000000 -0.000000 55.346119 -87.653839 53.438283 -92.594375 -1.896495 89.242876 13.733621 2.186052 1.859815 -27.263933 13.486396 15.742672 55.346017 92.346172 -57.298798 -86.085150 1.148165 -89.283898 13.057007 -1.574615 -0.909111 -27.821145 -5.374850 -7.768749 93.708693 -1.368929 1.460525 15.114997 1.563906 -2.635617 4.214410 -2.683499 4.121474 0.528712 -93.016829 98.773223 -78.804646 6.179850 83.557427 -19.573790 26.063358 36.463020 -3.916597 28.600162 37.996749 0.528687 86.983156 -89.833640 -80.491177 12.478652 -75.601629 -73.486989 -24.441484 -138.930870 1.685611 24.986514 18.366476 
-0.037547 0.842183 -0.000050 -0.000000 0.000000 -0.000000 84.135500 -85.135972 79.317778 -96.246142 -5.207637 90.358724 15.207845 0.914573 1.031667 -30.169434 14.769212 18.031775 84.135288 94.864033 -88.994947 -82.887549 -3.502890 -87.643369 13.095584 -1.841160 -1.022939 -31.386543 -5.029011 -7.643053 93.573366 -1.183067 1.259246 16.148558 1.484380 -2.528945 5.137366 -1.637898 2.661389 -13.887221 -92.503321 83.469563 -79.201146 5.223974 83.830436 -20.816735 25.784842 37.268668 -4.437459 26.519982 35.765548 -13.887257 87.496690 -76.023544 -79.395738 14.283269 -74.594033 -93.519135 -13.532486 -217.655070 -29.449385 14.517364 57.070076 
